<mxfile host="app.diagrams.net" agent="Mozilla/5.0 (Windows NT 10.0; Win64; x64) AppleWebKit/537.36 (KHTML, like Gecko) Chrome/130.0.0.0 Safari/537.36 Edg/130.0.0.0" version="24.7.14" pages="2">
  <diagram name="ページ1" id="n75_IXS4q9nXWNiTMdX0">
    <mxGraphModel dx="1050" dy="611" grid="1" gridSize="10" guides="1" tooltips="1" connect="1" arrows="1" fold="1" page="1" pageScale="1" pageWidth="827" pageHeight="1169" math="0" shadow="0">
      <root>
        <mxCell id="0" />
        <mxCell id="1" parent="0" />
        <mxCell id="7xozJP_kI42NFO0sZYY2-12" style="edgeStyle=orthogonalEdgeStyle;rounded=0;orthogonalLoop=1;jettySize=auto;html=1;exitX=0.75;exitY=1;exitDx=0;exitDy=0;entryX=0;entryY=0.25;entryDx=0;entryDy=0;" edge="1" parent="1" source="7xozJP_kI42NFO0sZYY2-1" target="7xozJP_kI42NFO0sZYY2-6">
          <mxGeometry relative="1" as="geometry" />
        </mxCell>
        <mxCell id="7xozJP_kI42NFO0sZYY2-13" value="board" style="edgeLabel;html=1;align=center;verticalAlign=middle;resizable=0;points=[];" vertex="1" connectable="0" parent="7xozJP_kI42NFO0sZYY2-12">
          <mxGeometry x="0.3089" relative="1" as="geometry">
            <mxPoint as="offset" />
          </mxGeometry>
        </mxCell>
        <mxCell id="7xozJP_kI42NFO0sZYY2-1" value="points list&lt;div&gt;→points&lt;/div&gt;" style="rounded=0;whiteSpace=wrap;html=1;" vertex="1" parent="1">
          <mxGeometry x="420" y="180" width="120" height="60" as="geometry" />
        </mxCell>
        <mxCell id="7xozJP_kI42NFO0sZYY2-10" style="edgeStyle=orthogonalEdgeStyle;rounded=0;orthogonalLoop=1;jettySize=auto;html=1;exitX=0;exitY=0.75;exitDx=0;exitDy=0;entryX=1;entryY=0.75;entryDx=0;entryDy=0;" edge="1" parent="1" source="7xozJP_kI42NFO0sZYY2-2" target="7xozJP_kI42NFO0sZYY2-1">
          <mxGeometry relative="1" as="geometry" />
        </mxCell>
        <mxCell id="7xozJP_kI42NFO0sZYY2-11" value="selection, points" style="edgeLabel;html=1;align=center;verticalAlign=middle;resizable=0;points=[];" vertex="1" connectable="0" parent="7xozJP_kI42NFO0sZYY2-10">
          <mxGeometry x="-0.035" y="1" relative="1" as="geometry">
            <mxPoint x="-1" as="offset" />
          </mxGeometry>
        </mxCell>
        <mxCell id="7xozJP_kI42NFO0sZYY2-2" value="all reflection&lt;div&gt;→points&lt;/div&gt;" style="whiteSpace=wrap;html=1;rounded=0;" vertex="1" parent="1">
          <mxGeometry x="700" y="180" width="120" height="60" as="geometry" />
        </mxCell>
        <mxCell id="7xozJP_kI42NFO0sZYY2-14" style="edgeStyle=orthogonalEdgeStyle;rounded=0;orthogonalLoop=1;jettySize=auto;html=1;exitX=0;exitY=0.75;exitDx=0;exitDy=0;entryX=0.25;entryY=1;entryDx=0;entryDy=0;" edge="1" parent="1" source="7xozJP_kI42NFO0sZYY2-6" target="7xozJP_kI42NFO0sZYY2-1">
          <mxGeometry relative="1" as="geometry" />
        </mxCell>
        <mxCell id="7xozJP_kI42NFO0sZYY2-15" value="selection, points" style="edgeLabel;html=1;align=center;verticalAlign=middle;resizable=0;points=[];" vertex="1" connectable="0" parent="7xozJP_kI42NFO0sZYY2-14">
          <mxGeometry x="-0.4942" relative="1" as="geometry">
            <mxPoint as="offset" />
          </mxGeometry>
        </mxCell>
        <mxCell id="7xozJP_kI42NFO0sZYY2-6" value="all reflection&lt;div&gt;→ points list&lt;div&gt;→points&lt;/div&gt;&lt;/div&gt;" style="whiteSpace=wrap;html=1;rounded=0;" vertex="1" parent="1">
          <mxGeometry x="700" y="270" width="120" height="60" as="geometry" />
        </mxCell>
        <mxCell id="7xozJP_kI42NFO0sZYY2-8" value="" style="endArrow=classic;html=1;rounded=0;exitX=1;exitY=0.25;exitDx=0;exitDy=0;entryX=0;entryY=0.25;entryDx=0;entryDy=0;" edge="1" parent="1" source="7xozJP_kI42NFO0sZYY2-1" target="7xozJP_kI42NFO0sZYY2-2">
          <mxGeometry width="50" height="50" relative="1" as="geometry">
            <mxPoint x="520" y="150" as="sourcePoint" />
            <mxPoint x="570" y="100" as="targetPoint" />
          </mxGeometry>
        </mxCell>
        <mxCell id="7xozJP_kI42NFO0sZYY2-9" value="board" style="edgeLabel;html=1;align=center;verticalAlign=middle;resizable=0;points=[];" vertex="1" connectable="0" parent="7xozJP_kI42NFO0sZYY2-8">
          <mxGeometry x="-0.015" relative="1" as="geometry">
            <mxPoint as="offset" />
          </mxGeometry>
        </mxCell>
      </root>
    </mxGraphModel>
  </diagram>
  <diagram id="sMhh0tvMqmrVHwIf0A_h" name="ページ2">
    <mxGraphModel dx="1050" dy="611" grid="1" gridSize="10" guides="1" tooltips="1" connect="1" arrows="1" fold="1" page="1" pageScale="1" pageWidth="827" pageHeight="1169" math="0" shadow="0">
      <root>
        <mxCell id="0" />
        <mxCell id="1" parent="0" />
        <mxCell id="KNDIcG7MMEGb0SaevIjP-3" value="" style="edgeStyle=orthogonalEdgeStyle;rounded=0;orthogonalLoop=1;jettySize=auto;html=1;exitX=1;exitY=0.25;exitDx=0;exitDy=0;entryX=0;entryY=0.25;entryDx=0;entryDy=0;" edge="1" parent="1" source="KNDIcG7MMEGb0SaevIjP-1" target="KNDIcG7MMEGb0SaevIjP-2">
          <mxGeometry relative="1" as="geometry" />
        </mxCell>
        <mxCell id="KNDIcG7MMEGb0SaevIjP-7" style="edgeStyle=orthogonalEdgeStyle;rounded=0;orthogonalLoop=1;jettySize=auto;html=1;exitX=1;exitY=0.75;exitDx=0;exitDy=0;entryX=0;entryY=0.25;entryDx=0;entryDy=0;" edge="1" parent="1" source="KNDIcG7MMEGb0SaevIjP-1" target="KNDIcG7MMEGb0SaevIjP-6">
          <mxGeometry relative="1" as="geometry" />
        </mxCell>
        <mxCell id="KNDIcG7MMEGb0SaevIjP-1" value="board" style="rounded=0;whiteSpace=wrap;html=1;" vertex="1" parent="1">
          <mxGeometry x="200" y="170" width="120" height="60" as="geometry" />
        </mxCell>
        <mxCell id="KNDIcG7MMEGb0SaevIjP-5" value="" style="edgeStyle=orthogonalEdgeStyle;rounded=0;orthogonalLoop=1;jettySize=auto;html=1;exitX=1;exitY=0.25;exitDx=0;exitDy=0;entryX=0;entryY=0.25;entryDx=0;entryDy=0;" edge="1" parent="1" source="KNDIcG7MMEGb0SaevIjP-2" target="KNDIcG7MMEGb0SaevIjP-4">
          <mxGeometry relative="1" as="geometry" />
        </mxCell>
        <mxCell id="KNDIcG7MMEGb0SaevIjP-9" style="edgeStyle=orthogonalEdgeStyle;rounded=0;orthogonalLoop=1;jettySize=auto;html=1;exitX=1;exitY=0.75;exitDx=0;exitDy=0;entryX=0;entryY=0.25;entryDx=0;entryDy=0;" edge="1" parent="1" source="KNDIcG7MMEGb0SaevIjP-2" target="KNDIcG7MMEGb0SaevIjP-8">
          <mxGeometry relative="1" as="geometry" />
        </mxCell>
        <mxCell id="KNDIcG7MMEGb0SaevIjP-2" value="my action" style="rounded=0;whiteSpace=wrap;html=1;" vertex="1" parent="1">
          <mxGeometry x="400" y="170" width="120" height="60" as="geometry" />
        </mxCell>
        <mxCell id="KNDIcG7MMEGb0SaevIjP-4" value="reflection" style="whiteSpace=wrap;html=1;rounded=0;" vertex="1" parent="1">
          <mxGeometry x="600" y="170" width="120" height="60" as="geometry" />
        </mxCell>
        <mxCell id="KNDIcG7MMEGb0SaevIjP-6" value="my action" style="rounded=0;whiteSpace=wrap;html=1;" vertex="1" parent="1">
          <mxGeometry x="400" y="390" width="120" height="60" as="geometry" />
        </mxCell>
        <mxCell id="KNDIcG7MMEGb0SaevIjP-8" value="reflection" style="whiteSpace=wrap;html=1;rounded=0;" vertex="1" parent="1">
          <mxGeometry x="600" y="280" width="120" height="60" as="geometry" />
        </mxCell>
        <mxCell id="KNDIcG7MMEGb0SaevIjP-10" value="" style="edgeStyle=orthogonalEdgeStyle;rounded=0;orthogonalLoop=1;jettySize=auto;html=1;exitX=1;exitY=0.25;exitDx=0;exitDy=0;entryX=0;entryY=0.25;entryDx=0;entryDy=0;" edge="1" target="KNDIcG7MMEGb0SaevIjP-12" parent="1" source="KNDIcG7MMEGb0SaevIjP-6">
          <mxGeometry relative="1" as="geometry">
            <mxPoint x="520" y="405" as="sourcePoint" />
          </mxGeometry>
        </mxCell>
        <mxCell id="KNDIcG7MMEGb0SaevIjP-11" style="edgeStyle=orthogonalEdgeStyle;rounded=0;orthogonalLoop=1;jettySize=auto;html=1;exitX=1;exitY=0.75;exitDx=0;exitDy=0;entryX=0;entryY=0.25;entryDx=0;entryDy=0;" edge="1" target="KNDIcG7MMEGb0SaevIjP-13" parent="1" source="KNDIcG7MMEGb0SaevIjP-6">
          <mxGeometry relative="1" as="geometry">
            <mxPoint x="520" y="435" as="sourcePoint" />
          </mxGeometry>
        </mxCell>
        <mxCell id="KNDIcG7MMEGb0SaevIjP-12" value="reflection" style="whiteSpace=wrap;html=1;rounded=0;" vertex="1" parent="1">
          <mxGeometry x="600" y="390" width="120" height="60" as="geometry" />
        </mxCell>
        <mxCell id="KNDIcG7MMEGb0SaevIjP-13" value="reflection" style="whiteSpace=wrap;html=1;rounded=0;" vertex="1" parent="1">
          <mxGeometry x="600" y="500" width="120" height="60" as="geometry" />
        </mxCell>
      </root>
    </mxGraphModel>
  </diagram>
</mxfile>
